<svg width="163" height="44" viewBox="0 0 163 44" fill="none" xmlns="http://www.w3.org/2000/svg">
<rect width="163" height="44" rx="3" fill="white"/>
<path d="M28.8956 13.3916C28.876 13.2502 28.751 13.1718 28.6473 13.1632C28.5443 13.1547 26.5277 13.1244 26.5277 13.1244C26.5277 13.1244 24.8411 11.5055 24.6745 11.3408C24.5079 11.1761 24.1825 11.2258 24.056 11.2631C24.0544 11.2639 23.7392 11.3602 23.2087 11.5226C23.1199 11.2383 22.9895 10.8887 22.8032 10.5376C22.2028 9.40498 21.3233 8.80605 20.2608 8.8045C20.2592 8.8045 20.2584 8.8045 20.2568 8.8045C20.183 8.8045 20.1099 8.81149 20.036 8.8177C20.0046 8.78042 19.9731 8.74391 19.9401 8.70817C19.4772 8.21878 18.8838 7.9803 18.1726 8.00127C16.8004 8.04011 15.4337 9.01968 14.3255 10.7597C13.5459 11.984 12.9525 13.5221 12.7843 14.713C11.2086 15.1954 10.1067 15.5325 10.0824 15.5403C9.28702 15.7873 9.26187 15.8114 9.15813 16.5524C9.08111 17.1125 7 33.0186 7 33.0186L24.4403 36L31.9992 34.1426C31.9992 34.1426 28.9153 13.533 28.8956 13.3916ZM22.3356 11.7898C21.934 11.9125 21.4774 12.0524 20.9822 12.2038C20.972 11.5171 20.8895 10.5617 20.5657 9.7359C21.607 9.93088 22.1195 11.0953 22.3356 11.7898ZM20.0698 12.4835C19.1558 12.7631 18.1584 13.0684 17.158 13.3745C17.4393 12.3095 17.973 11.2491 18.6284 10.5539C18.8721 10.2952 19.2131 10.007 19.6171 9.84232C19.9967 10.6254 20.0792 11.7339 20.0698 12.4835ZM18.2001 8.90393C18.5223 8.89694 18.7935 8.96685 19.0253 9.11755C18.6544 9.30787 18.296 9.58131 17.9596 9.93787C17.088 10.8623 16.42 12.2971 16.1536 13.6813C15.3229 13.9354 14.5102 14.1847 13.762 14.4131C14.2344 12.2341 16.0821 8.96452 18.2001 8.90393Z" fill="#95BF47"/>
<path d="M28.6481 13.164C28.5451 13.1555 26.5284 13.1252 26.5284 13.1252C26.5284 13.1252 24.8419 11.5063 24.6752 11.3416C24.6132 11.2802 24.5291 11.2484 24.441 11.2352L24.4418 35.9992L32 34.1427C32 34.1427 28.916 13.5338 28.8964 13.3924C28.8768 13.251 28.751 13.1725 28.6481 13.164Z" fill="#5E8E3E"/>
<path d="M20.2513 17.0053L19.3734 20.2517C19.3734 20.2517 18.3942 19.8112 17.2334 19.8834C15.5311 19.9899 15.513 21.051 15.5303 21.3174C15.623 22.7693 19.4874 23.0862 19.7043 26.4871C19.8748 29.1625 18.2684 30.9927 15.9539 31.1371C13.1757 31.3104 11.6463 29.6907 11.6463 29.6907L12.235 27.2158C12.235 27.2158 13.7746 28.3639 15.0069 28.287C15.8117 28.2365 16.0993 27.5894 16.0702 27.1319C15.9492 25.238 12.8024 25.3499 12.6035 22.238C12.4361 19.6193 14.1762 16.9657 18.0154 16.7265C19.4945 16.6325 20.2513 17.0053 20.2513 17.0053Z" fill="white"/>
<path d="M52.8896 17.1357H51.1123L47.9268 24.9219H47.8721L44.6797 17.1357H42.9092V27H44.3037V19.7402H44.3516L47.332 26.9248H48.4668L51.4404 19.7402H51.4883V27H52.8896V17.1357ZM57.7363 27.0889C59.8828 27.0889 61.2432 25.626 61.2432 23.2881C61.2432 20.9502 59.876 19.4805 57.7363 19.4805C55.5967 19.4805 54.2227 20.957 54.2227 23.2881C54.2227 25.626 55.5898 27.0889 57.7363 27.0889ZM57.7363 25.8584C56.4785 25.8584 55.7266 24.9082 55.7266 23.2881C55.7266 21.6748 56.4785 20.7109 57.7363 20.7109C58.9941 20.7109 59.7393 21.668 59.7393 23.2881C59.7393 24.9082 58.9941 25.8584 57.7363 25.8584ZM68.5439 19.5762H67.0059L65.1055 25.5371H65.0713L63.1777 19.5762H61.6123L64.292 27H65.8711L68.5439 19.5762ZM69.4873 27H70.9707V19.5762H69.4873V27ZM70.2324 18.5166C70.7109 18.5166 71.1006 18.1338 71.1006 17.6621C71.1006 17.1768 70.7109 16.8076 70.2324 16.8076C69.7539 16.8076 69.3643 17.1768 69.3643 17.6621C69.3643 18.1338 69.7539 18.5166 70.2324 18.5166ZM75.6396 20.6904C76.7197 20.6904 77.4512 21.4561 77.4854 22.6113H73.7188C73.8008 21.4697 74.5732 20.6904 75.6396 20.6904ZM77.4785 24.8262C77.2734 25.4756 76.5967 25.8857 75.7354 25.8857C74.5186 25.8857 73.7119 25.0381 73.7119 23.7529V23.6641H78.9688V23.1445C78.9688 20.8955 77.6836 19.4805 75.6465 19.4805C73.5684 19.4805 72.2148 20.9912 72.2148 23.3154C72.2148 25.6396 73.5547 27.0889 75.708 27.0889C77.376 27.0889 78.6816 26.1592 78.8936 24.8262H77.4785ZM85.0322 27V19.7334H85.0938L90.207 27H91.5879V17.1357H90.0977V24.4092H90.043L84.9297 17.1357H83.542V27H85.0322ZM96.4414 27.0889C98.5879 27.0889 99.9482 25.626 99.9482 23.2881C99.9482 20.9502 98.5811 19.4805 96.4414 19.4805C94.3018 19.4805 92.9277 20.957 92.9277 23.2881C92.9277 25.626 94.2949 27.0889 96.4414 27.0889ZM96.4414 25.8584C95.1836 25.8584 94.4316 24.9082 94.4316 23.2881C94.4316 21.6748 95.1836 20.7109 96.4414 20.7109C97.6992 20.7109 98.4443 21.668 98.4443 23.2881C98.4443 24.9082 97.6992 25.8584 96.4414 25.8584ZM101.138 27H102.621V22.4473C102.621 21.4766 103.277 20.7656 104.193 20.7656C105.062 20.7656 105.615 21.3125 105.615 22.1738V27H107.071V22.3926C107.071 21.4424 107.714 20.7656 108.623 20.7656C109.546 20.7656 110.072 21.3262 110.072 22.2969V27H111.549V21.9414C111.549 20.458 110.592 19.4941 109.129 19.4941C108.069 19.4941 107.194 20.041 106.805 20.9365H106.771C106.47 20.0137 105.725 19.4941 104.692 19.4941C103.722 19.4941 102.922 20 102.58 20.834H102.553V19.5762H101.138V27ZM113.087 27H114.57V19.5762H113.087V27ZM113.832 18.5166C114.311 18.5166 114.7 18.1338 114.7 17.6621C114.7 17.1768 114.311 16.8076 113.832 16.8076C113.354 16.8076 112.964 17.1768 112.964 17.6621C112.964 18.1338 113.354 18.5166 113.832 18.5166ZM116.149 27H117.633V22.7139C117.633 21.5449 118.303 20.7656 119.424 20.7656C120.511 20.7656 121.03 21.3945 121.03 22.5225V27H122.514V22.2422C122.514 20.5332 121.577 19.4941 119.937 19.4941C118.788 19.4941 118.043 19.9521 117.592 20.8271H117.564V19.5762H116.149V27ZM126.574 25.8926C125.72 25.8926 125.166 25.4824 125.166 24.8467C125.166 24.1904 125.692 23.8145 126.704 23.7529L128.509 23.6299V24.2109C128.509 25.1885 127.675 25.8926 126.574 25.8926ZM126.178 27.0752C127.189 27.0752 128.112 26.5693 128.522 25.7627H128.557V27H129.972V21.9072C129.972 20.4375 128.803 19.4805 126.991 19.4805C125.323 19.4805 124.079 20.4512 124.038 21.7637H125.426C125.556 21.1211 126.144 20.7041 126.95 20.7041C127.941 20.7041 128.509 21.1689 128.509 22.0166V22.5908L126.506 22.707C124.674 22.8232 123.669 23.5752 123.669 24.874C123.669 26.2002 124.694 27.0752 126.178 27.0752ZM131.906 17.9082V19.5762H130.881V20.7451H131.906V25.0449C131.906 26.4805 132.48 27.0479 133.964 27.0479C134.285 27.0479 134.634 27.0137 134.798 26.9727V25.8037C134.702 25.8174 134.449 25.8379 134.292 25.8379C133.67 25.8379 133.383 25.5371 133.383 24.8945V20.7451H134.805V19.5762H133.383V17.9082H131.906ZM136.11 27H137.594V19.5762H136.11V27ZM136.855 18.5166C137.334 18.5166 137.724 18.1338 137.724 17.6621C137.724 17.1768 137.334 16.8076 136.855 16.8076C136.377 16.8076 135.987 17.1768 135.987 17.6621C135.987 18.1338 136.377 18.5166 136.855 18.5166ZM142.352 27.0889C144.498 27.0889 145.858 25.626 145.858 23.2881C145.858 20.9502 144.491 19.4805 142.352 19.4805C140.212 19.4805 138.838 20.957 138.838 23.2881C138.838 25.626 140.205 27.0889 142.352 27.0889ZM142.352 25.8584C141.094 25.8584 140.342 24.9082 140.342 23.2881C140.342 21.6748 141.094 20.7109 142.352 20.7109C143.609 20.7109 144.354 21.668 144.354 23.2881C144.354 24.9082 143.609 25.8584 142.352 25.8584ZM147.048 27H148.531V22.7139C148.531 21.5449 149.201 20.7656 150.322 20.7656C151.409 20.7656 151.929 21.3945 151.929 22.5225V27H153.412V22.2422C153.412 20.5332 152.476 19.4941 150.835 19.4941C149.687 19.4941 148.941 19.9521 148.49 20.8271H148.463V19.5762H147.048V27Z" fill="#202223"/>
</svg>
